# xmcd
#
# Track frame offsets:
#	150
#	21399
#	39434
#	55889
#	70343
#	88817
#	108573
#	127325
#	143528
#	163318
#	177614
#	194774
#	215661
#	229190
#	246231
#	264622
#	276517
#	292750
#	310606
#	328641
#	358365
#
# Disc length: 4784 seconds
#
# Revision: 1
# Processed by: cddbd v1.5.1PL0 Copyright (c) Steve Scherf et al.
# Submitted via: audiograbber 1.83.01
#
DISCID=5d12ae15
DTITLE=Various Artist - Top Tunes TT-134
DYEAR=1900
DGENRE=Country
TTITLE0=Kenny Chesney - A Lot of Things Defferent
TTITLE1=Cledus Judd - Don' Mess With America (aka Only In America)
TTITLE2=Alabama - I'm In The Mood
TTITLE3=Eric Heatherly - Last Man Committed
TTITLE4=Cledus Judd - Let's Shoot Dave
TTITLE5=Willie Nelson - Maria, Shut Up And Kiss Me
TTITLE6=Montgomery Gentry - My Town
TTITLE7=Flatlanders - Now It's now Again
TTITLE8=Kris Kristofferson - Silver Tongued Devil And I
TTITLE9=Rodney Atkins - Sing Along
TTITLE10=Keith Urban - Somebody Like You
TTITLE11=Flatlanders - South Wind Of Summer
TTITLE12=McBride and the Ride - Squeeze Box
TTITLE13=Travis Tritt - Strong Enough To Be Your Man
TTITLE14=Tommy Shane Steiner - Tell Me Where It Hurts
TTITLE15=Daryls Singletary - Thats Why I Sing This Way
TTITLE16=Rascal Flatts - These Days
TTITLE17=Ronnie Milsap - Why Don't You Spend The Night
TTITLE18=Cledus Judd - Don't Mess With America (Vocal)
TTITLE19=Cledus Judd - Let's Shoot Dave  (Vocal)
TTITLE20=None - Data TRack
EXTD=
EXTT0=
EXTT1=
EXTT2=
EXTT3=
EXTT4=
EXTT5=
EXTT6=
EXTT7=
EXTT8=
EXTT9=
EXTT10=
EXTT11=
EXTT12=
EXTT13=
EXTT14=
EXTT15=
EXTT16=
EXTT17=
EXTT18=
EXTT19=
EXTT20=
PLAYORDER=
